# xmcd
#
# Track frame offsets: 
#        150
#        11765
#        24430
#        37872
#        51760
#        65255
#        77305
#        92072
#        103542
#        118475
#        133005
#        145692
#        157627
#        170242
#        185180
#        199225
#        213267
#        226337
#        237030
#        251155
#        264147
#        276942
#        291072
#        304322
#        318710
#
# Disc length: 4388 seconds
#
# Revision: 7
# Processed by: cddbd v1.5.2PL0 Copyright (c) Steve Scherf et al.
# Submitted via: ExactAudioCopyFreeDBPlugin 1.0
#
DISCID=60112219
DTITLE=Various Artist - Chess Blues [disc 2] 1952-1954
DYEAR=1992
DGENRE=Blues
TTITLE0=John Lee Hooker - Walkin' the Boogie [alternate]
TTITLE1=Little Walter - Juke
TTITLE2=Memphis Minnie - Conjur Man
TTITLE3=Muddy Waters - Who's Gonna Be Your Sweet Man When I'm Gone
TTITLE4=Memphis Minnie - Broken Heart [alternate]
TTITLE5=Willie Nix - Truckin' Little Woman
TTITLE6=Rocky Fuller - Funeral Hearse at My Door
TTITLE7=Eddie Boyd - Hard Time Gettin' Started
TTITLE8=Little Walter - Don't Need No Horse
TTITLE9=Gus Jenkins - Eight Ball
TTITLE10=Little Walter - Fast Boogie
TTITLE11=Willie Mabon - I'm Mad
TTITLE12=John Brim - Ice Cream Man
TTITLE13=Elmore James - Whose Muddy Shoes
TTITLE14=Willie Mabon - Got to Have It
TTITLE15=Henry Gray - I Declare That Ain't Right
TTITLE16=Alberta Adams - Remember
TTITLE17=Henry Gray and Morris Pejoe - Untitled Instrumental
TTITLE18=Little Walter - Blues With a Feeling
TTITLE19=Muddy Waters - Hoochie Coochie Man
TTITLE20=Howlin' Wolf - Forty Four
TTITLE21=Little Walter - Got to Find My Baby [alternate]
TTITLE22=Howlin' Wolf - Evil
TTITLE23=Lowell Fulson - Reconsider Baby
TTITLE24=J.B. Lenoir - Mama Talk to Your Daughter
EXTD=
EXTT0=
EXTT1=
EXTT2=
EXTT3=
EXTT4=
EXTT5=
EXTT6=
EXTT7=
EXTT8=
EXTT9=
EXTT10=
EXTT11=
EXTT12=
EXTT13=
EXTT14=
EXTT15=
EXTT16=
EXTT17=
EXTT18=
EXTT19=
EXTT20=
EXTT21=
EXTT22=
EXTT23=
EXTT24=
PLAYORDER=
